<svg xmlns="http://www.w3.org/2000/svg" viewBox="0 0 48 48" width="48" height="48"><path fill="#455a64" d="M44,21.778l-8.819-2.409l4.532-7.938l-3.142-3.145l-7.594,4.336L26.222,4h-4.444l-2.64,8.264l-7.708-3.978l-3.143,3.145l3.977,7.708L4,21.778v4.444l8.263,2.639l-3.977,7.708l3.143,3.145l7.708-3.978L21.778,44h4.444l2.639-8.264l7.709,3.978l3.142-3.145l-4.149-8.043L44,26.222V21.778z M24,32.889c-4.91,0-8.889-3.98-8.889-8.889S19.09,15.111,24,15.111c4.909,0,8.889,3.98,8.889,8.889S28.909,32.889,24,32.889z"/><path fill="#78909c" d="M24,9C15.716,9,9,15.716,9,24s6.716,15,15,15c8.284,0,15-6.716,15-15S32.284,9,24,9z"/><path fill="#fff" d="M19.32,26.953h-2.741L16.046,29H13.92l3.11-10h1.839L22,29h-2.146L19.32,26.953z M17.017,25.272h1.859l-0.93-3.566L17.017,25.272z M33,29h-2V19h2V29z M25.01,25.484V29H23V19h3.391c0.984,0,1.77,0.306,2.354,0.92c0.586,0.614,0.879,1.411,0.879,2.39c0,0.979-0.29,1.752-0.868,2.321c-0.579,0.569-1.381,0.852-2.406,0.852H25.01z M25.01,23.8h1.381c0.383,0,0.679-0.126,0.889-0.377c0.209-0.251,0.314-0.618,0.314-1.099c0-0.498-0.108-0.895-0.321-1.193c-0.215-0.294-0.502-0.443-0.861-0.447H25.01V23.8z"/></svg>